<svg id="svg" version="1.1" xmlns="http://www.w3.org/2000/svg" xmlns:xlink="http://www.w3.org/1999/xlink" width="400" height="400" viewBox="0, 0, 400,400">
<g id="svgg">
<path id="path0" d="M181.005 104.426 C 176.063 105.710,173.995 107.521,173.325 111.154 L 173.086 112.450 170.693 113.290 C 168.165 114.176,166.170 115.016,163.955 116.126 C 163.215 116.497,162.567 116.800,162.515 116.800 C 162.463 116.800,162.729 116.147,163.107 115.350 C 164.025 113.411,164.590 111.122,164.740 108.726 L 164.863 106.752 164.382 107.003 C 159.112 109.753,156.797 113.203,157.061 117.913 L 157.173 119.927 154.824 121.559 C 153.531 122.457,151.344 124.129,149.963 125.275 L 147.451 127.360 147.761 126.430 C 148.381 124.571,148.093 115.528,147.400 115.100 C 147.189 114.970,145.373 117.045,143.926 119.067 C 141.667 122.226,141.272 125.829,142.718 130.089 C 142.982 130.865,143.198 131.525,143.199 131.555 C 143.199 131.585,142.680 132.170,142.044 132.855 C 140.367 134.661,137.935 137.614,136.301 139.828 L 134.878 141.757 134.960 140.616 C 135.065 139.165,134.532 135.508,133.886 133.247 C 133.263 131.065,132.021 127.800,131.814 127.800 C 131.635 127.800,129.787 131.674,129.046 133.600 C 127.703 137.094,128.659 142.832,131.172 146.361 L 131.566 146.914 130.704 148.327 C 129.480 150.335,127.323 154.451,126.082 157.149 C 125.141 159.193,125.009 159.388,124.911 158.877 C 123.944 153.808,119.191 143.498,118.581 145.146 C 115.875 152.462,116.838 159.033,121.378 164.226 L 122.537 165.552 121.280 169.326 C 118.094 178.888,115.797 190.566,115.082 200.840 L 114.947 202.779 115.523 202.908 C 115.841 202.979,116.239 203.074,116.410 203.119 C 116.673 203.189,116.757 202.716,116.965 199.969 C 117.749 189.666,119.711 179.599,122.807 170.000 C 124.088 166.030,123.796 166.362,125.706 166.702 C 130.897 167.627,133.794 166.717,137.503 162.997 C 140.006 160.486,140.010 160.616,137.399 159.891 C 133.723 158.870,129.067 159.013,127.039 160.209 L 126.372 160.603 126.507 160.151 C 127.200 157.832,132.511 147.920,132.977 148.076 C 139.115 150.127,141.641 149.890,145.717 146.877 C 146.594 146.230,147.532 145.555,147.803 145.377 L 148.296 145.054 146.898 144.350 C 143.549 142.666,139.276 141.942,136.950 142.665 C 136.428 142.828,136.000 142.918,136.000 142.866 C 136.000 142.472,141.104 135.951,142.947 133.991 L 144.135 132.726 145.818 133.551 C 149.961 135.584,152.351 135.531,157.050 133.300 C 159.331 132.218,159.310 132.263,157.931 131.347 C 155.215 129.544,153.153 128.808,150.303 128.627 L 148.306 128.500 150.003 127.027 C 151.978 125.313,156.314 122.017,157.275 121.499 L 157.938 121.143 159.184 121.989 C 162.584 124.298,164.709 124.624,169.259 123.536 C 172.464 122.770,172.443 122.796,170.889 121.536 C 168.707 119.768,166.245 118.609,164.024 118.303 C 163.025 118.166,162.992 118.143,163.391 117.864 C 164.089 117.375,168.761 115.306,171.169 114.420 L 173.428 113.589 174.648 114.608 C 177.276 116.804,178.917 117.291,183.489 117.232 C 185.353 117.208,186.928 117.137,186.989 117.074 C 187.459 116.588,182.770 113.190,180.641 112.473 L 179.359 112.042 180.330 111.834 C 183.520 111.150,184.670 111.103,186.316 111.592 C 188.450 112.225,191.334 112.320,196.418 111.922 C 198.683 111.745,201.874 111.600,203.508 111.600 C 207.113 111.600,207.091 111.569,202.393 110.029 C 195.505 107.773,190.662 107.608,186.300 109.484 C 185.711 109.737,180.005 110.800,179.234 110.800 C 179.184 110.800,179.587 110.328,180.130 109.750 C 182.054 107.707,184.277 103.733,183.450 103.815 C 183.368 103.823,182.267 104.098,181.005 104.426 M180.321 107.281 C 179.312 108.695,179.104 108.888,178.796 108.698 C 178.672 108.621,178.749 108.373,178.996 108.059 C 180.225 106.497,179.064 106.723,177.497 108.350 C 176.501 109.385,176.243 109.572,176.393 109.152 C 176.501 108.850,176.540 108.477,176.481 108.322 C 176.279 107.797,178.232 106.591,180.046 106.120 C 181.410 105.767,181.408 105.758,180.321 107.281 M198.235 110.028 L 199.900 110.485 198.800 110.622 C 196.987 110.847,194.200 110.939,194.200 110.773 C 194.200 110.688,194.808 110.592,195.550 110.559 C 196.590 110.514,196.900 110.431,196.900 110.200 C 196.900 109.947,196.507 109.906,194.400 109.940 C 193.025 109.963,192.080 109.932,192.300 109.871 C 192.520 109.811,192.790 109.671,192.900 109.560 C 193.216 109.242,196.377 109.519,198.235 110.028 M162.908 111.441 C 162.341 113.673,161.995 114.423,161.676 114.105 C 161.468 113.897,161.449 113.696,161.600 113.301 C 161.911 112.482,161.849 112.000,161.432 112.000 C 161.172 112.000,160.989 112.250,160.809 112.850 C 160.669 113.317,160.299 114.195,159.987 114.800 L 159.419 115.900 159.410 115.067 C 159.404 114.603,159.293 114.198,159.160 114.153 C 158.547 113.949,160.585 111.450,162.296 110.307 C 163.251 109.669,163.324 109.804,162.908 111.441 M183.042 115.152 C 184.040 115.812,183.853 116.000,182.198 116.000 C 180.352 116.000,178.800 115.660,178.800 115.255 C 178.800 115.084,178.643 114.825,178.450 114.680 C 177.992 114.335,179.209 114.647,180.532 115.214 C 181.651 115.694,181.800 115.695,181.800 115.224 C 181.800 114.995,181.566 114.751,181.200 114.600 C 180.870 114.463,180.600 114.226,180.600 114.072 C 180.600 113.763,181.636 114.221,183.042 115.152 M146.759 121.300 C 146.765 122.795,146.486 125.441,146.427 124.450 C 146.411 124.184,146.270 124.000,146.083 124.000 C 145.822 124.000,145.778 123.795,145.833 122.850 C 145.894 121.811,145.861 121.700,145.500 121.700 C 145.167 121.700,145.091 121.851,145.048 122.600 C 144.913 124.911,144.200 127.628,144.200 125.828 C 144.200 125.031,144.017 124.600,143.679 124.600 C 143.327 124.600,143.330 124.510,143.722 123.186 C 144.157 121.720,144.597 120.899,145.630 119.631 L 146.500 118.561 146.626 119.131 C 146.696 119.444,146.755 120.420,146.759 121.300 M166.600 120.534 C 166.985 120.692,167.705 121.060,168.200 121.351 L 169.100 121.881 168.000 122.228 C 166.350 122.749,163.600 122.735,163.600 122.206 C 163.600 121.987,163.357 121.673,163.050 121.496 C 162.329 121.082,164.086 121.236,165.412 121.704 C 166.274 122.008,166.600 121.958,166.600 121.520 C 166.600 121.250,165.782 120.800,165.291 120.800 C 165.130 120.800,165.000 120.615,165.000 120.387 C 165.000 119.937,165.182 119.954,166.600 120.534 M96.412 122.417 C 77.945 124.807,63.351 153.729,61.602 191.400 C 59.935 227.299,66.685 250.736,80.532 257.134 C 84.678 259.050,95.344 260.192,98.247 259.032 C 104.103 256.692,111.820 245.906,118.711 230.430 L 119.900 227.760 119.946 228.830 C 120.519 242.172,125.871 248.092,137.066 247.770 C 143.444 247.587,148.759 240.960,152.989 227.918 C 158.746 210.169,156.837 194.256,148.703 192.186 C 148.261 192.073,147.358 191.713,146.696 191.384 C 143.606 189.851,135.883 189.319,133.525 190.477 C 129.766 192.323,126.446 197.250,123.402 205.500 C 110.980 239.170,99.746 257.025,92.373 254.816 C 84.233 252.377,81.020 205.723,86.821 174.200 C 89.480 159.751,93.971 146.423,98.441 139.717 C 101.069 135.774,104.764 133.752,106.539 135.285 L 107.100 135.769 107.034 139.855 C 106.946 145.379,107.184 146.135,109.080 146.348 C 112.402 146.723,114.750 142.383,114.560 136.220 C 114.268 126.797,106.751 121.079,96.412 122.417 M188.961 122.416 C 179.208 123.449,171.260 133.952,167.329 151.000 C 166.030 156.634,164.000 168.518,164.000 170.488 L 164.000 171.065 157.908 170.934 C 153.804 170.846,151.634 170.873,151.258 171.015 C 149.418 171.712,148.367 174.263,149.170 176.080 C 149.831 177.573,149.973 177.600,157.119 177.600 L 163.252 177.600 163.126 179.150 C 161.597 198.025,161.983 226.813,164.013 245.200 C 164.964 253.815,167.656 271.334,168.191 272.381 C 170.195 276.311,179.047 277.577,182.250 274.393 C 183.193 273.455,183.215 272.828,182.501 267.210 C 181.310 257.836,180.013 243.087,179.379 231.700 C 178.736 220.151,179.325 193.778,180.507 181.200 C 180.667 179.495,180.799 177.988,180.799 177.850 C 180.800 177.656,182.139 177.600,186.826 177.600 L 192.852 177.600 192.727 178.950 C 191.429 193.030,191.517 222.015,192.907 238.200 C 193.808 248.688,196.954 270.742,197.780 272.361 C 200.383 277.462,212.600 277.475,212.600 272.376 C 212.600 271.846,212.332 269.227,212.005 266.556 C 208.873 241.009,207.993 218.257,209.204 194.100 C 209.559 187.031,210.352 177.000,210.587 176.623 C 210.649 176.522,212.365 176.249,214.400 176.014 C 229.074 174.325,227.941 174.492,228.723 173.896 C 229.982 172.936,230.378 171.122,229.605 169.855 C 228.984 168.836,228.546 168.812,222.900 169.489 C 220.121 169.822,211.389 170.456,211.266 170.333 C 211.221 170.287,211.370 168.776,211.599 166.975 C 214.402 144.872,220.708 128.686,225.854 130.385 C 227.860 131.047,228.859 133.949,229.179 140.039 C 229.371 143.705,229.843 144.273,232.386 143.901 C 235.461 143.451,237.199 141.752,237.198 139.200 C 237.191 128.591,232.702 123.217,223.155 122.388 C 216.450 121.806,211.406 123.825,207.033 128.839 L 206.040 129.978 205.270 128.657 C 203.095 124.926,199.348 122.899,193.700 122.398 C 191.269 122.183,191.160 122.183,188.961 122.416 M154.231 131.024 C 156.068 131.732,156.063 131.848,154.165 132.700 C 152.511 133.442,150.506 133.626,150.355 133.050 C 150.290 132.800,149.922 132.534,149.375 132.341 L 148.500 132.032 149.200 131.984 C 150.142 131.921,150.101 131.919,151.750 132.081 C 153.100 132.214,153.200 132.197,153.200 131.837 C 153.200 131.451,152.541 131.200,151.525 131.200 C 151.201 131.200,151.100 131.077,151.100 130.682 C 151.100 130.025,151.854 130.107,154.231 131.024 M196.456 130.474 C 198.258 131.242,199.185 133.814,199.579 139.135 L 199.739 141.300 198.884 143.900 C 197.048 149.487,194.596 161.273,193.882 167.947 C 193.706 169.597,193.898 169.519,189.100 169.880 C 182.086 170.408,181.600 170.439,181.600 170.353 C 181.600 168.723,183.478 157.059,184.382 153.082 C 187.953 137.357,192.523 128.798,196.456 130.474 M132.595 134.410 C 132.986 136.011,133.229 137.579,133.275 138.800 C 133.314 139.845,133.309 140.138,133.264 139.450 C 133.194 138.390,133.125 138.200,132.807 138.200 C 132.429 138.200,132.389 138.095,132.104 136.350 C 132.008 135.762,131.892 135.600,131.565 135.600 C 131.193 135.600,131.162 135.681,131.280 136.350 C 131.353 136.763,131.455 138.090,131.508 139.300 L 131.603 141.500 131.252 140.596 C 130.780 139.383,130.610 139.153,130.280 139.280 C 129.935 139.412,129.893 137.214,130.213 135.800 C 130.409 134.935,131.800 131.733,131.925 131.859 C 131.959 131.892,132.260 133.040,132.595 134.410 M143.250 144.520 C 144.854 144.952,144.852 144.945,143.679 145.976 C 142.251 147.234,139.200 148.224,139.200 147.430 C 139.200 146.983,139.011 146.890,137.676 146.677 L 136.700 146.521 137.700 146.280 C 138.250 146.147,139.392 146.030,140.238 146.019 C 141.109 146.008,141.835 145.906,141.911 145.783 C 142.168 145.367,141.580 145.107,140.383 145.107 C 139.721 145.107,139.274 145.075,139.390 145.037 C 139.690 144.937,139.650 144.407,139.334 144.285 C 139.078 144.187,137.679 144.438,136.884 144.725 C 136.673 144.801,136.566 144.791,136.647 144.702 C 137.309 143.971,140.850 143.874,143.250 144.520 M122.020 154.400 C 122.261 155.115,122.493 155.793,122.534 155.907 C 122.576 156.021,122.372 156.103,122.081 156.091 C 121.616 156.070,121.504 155.918,121.142 154.814 C 120.738 153.583,120.358 153.162,119.984 153.536 C 119.866 153.654,119.948 154.167,120.205 154.912 C 120.674 156.271,121.402 159.037,121.396 159.433 C 121.393 159.580,121.111 159.220,120.770 158.633 C 120.305 157.836,120.056 157.591,119.786 157.662 C 118.839 157.909,118.474 153.530,119.213 150.800 L 119.674 149.100 120.628 151.100 C 121.153 152.200,121.779 153.685,122.020 154.400 M123.141 159.650 C 123.093 159.898,123.054 159.695,123.054 159.200 C 123.054 158.705,123.093 158.503,123.141 158.750 C 123.189 158.998,123.189 159.403,123.141 159.650 M135.276 160.968 L 136.253 161.100 135.435 162.133 C 133.915 164.054,130.800 165.781,130.800 164.704 C 130.800 164.374,130.334 164.231,129.000 164.153 L 128.100 164.100 129.300 163.626 C 129.960 163.365,131.108 163.053,131.850 162.932 C 133.887 162.600,133.868 161.898,131.827 162.044 C 130.653 162.129,130.457 162.096,130.477 161.821 C 130.516 161.277,129.662 161.338,128.395 161.971 C 127.734 162.301,127.247 162.486,127.311 162.383 C 128.008 161.254,132.071 160.533,135.276 160.968 M128.950 165.343 C 128.648 165.389,128.153 165.389,127.850 165.343 C 127.547 165.297,127.795 165.260,128.400 165.260 C 129.005 165.260,129.253 165.297,128.950 165.343 M239.673 184.285 C 223.757 187.920,214.275 218.005,223.640 235.156 C 227.880 242.922,235.808 247.800,244.190 247.800 C 251.788 247.800,259.053 240.620,267.081 225.178 L 268.717 222.031 268.965 224.121 C 270.632 238.150,280.979 248.164,293.387 247.756 C 302.173 247.466,310.861 237.082,320.709 215.100 C 324.299 207.084,324.413 206.527,322.687 205.389 C 320.729 204.099,319.699 204.982,317.665 209.700 C 309.495 228.642,300.408 239.500,294.908 236.890 C 292.417 235.709,289.582 231.807,288.492 228.061 C 287.087 223.233,286.708 213.800,287.920 213.800 C 288.101 213.800,289.174 213.491,290.304 213.113 C 306.878 207.567,312.158 190.092,298.728 185.233 C 286.992 180.986,276.337 188.139,271.217 203.700 C 267.006 216.496,257.793 231.946,252.133 235.704 C 248.089 238.389,245.049 237.437,241.732 232.448 C 239.470 229.046,237.822 220.202,238.520 215.220 L 238.700 213.940 240.300 213.500 C 256.584 209.027,263.629 191.772,251.562 185.917 C 248.180 184.276,242.891 183.550,239.673 184.285 M246.322 189.553 C 247.374 190.249,247.952 194.758,247.303 197.200 C 246.600 199.843,244.359 203.213,241.156 206.444 C 239.023 208.596,239.055 208.610,239.591 205.766 C 241.226 197.095,244.780 188.533,246.322 189.553 M295.371 189.908 C 296.763 191.679,296.637 196.558,295.121 199.549 C 293.788 202.180,288.283 208.750,288.036 208.007 C 287.748 207.145,289.777 199.076,291.197 195.432 C 293.197 190.300,294.413 188.691,295.371 189.908 M147.416 197.010 C 153.633 203.546,150.019 226.146,140.400 240.880 C 139.076 242.909,138.689 242.744,137.796 239.774 C 134.822 229.879,137.456 211.628,143.745 198.559 L 145.256 195.419 145.878 195.733 C 146.220 195.906,146.912 196.480,147.416 197.010 M246.640 250.640 C 246.508 250.772,246.400 251.122,246.400 251.419 C 246.400 252.073,246.114 252.200,244.634 252.201 C 233.012 252.215,214.400 256.283,214.400 258.810 C 214.400 260.136,221.336 261.838,222.731 260.853 C 226.169 258.425,234.238 256.492,244.482 255.644 L 246.463 255.479 246.334 265.790 C 246.136 281.513,246.478 305.934,246.902 306.402 C 247.693 307.277,251.324 308.391,253.400 308.397 L 254.700 308.400 254.628 281.727 L 254.556 255.055 256.528 254.927 C 257.613 254.857,262.460 254.707,267.300 254.593 C 282.198 254.244,283.666 254.068,282.083 252.823 C 280.303 251.422,277.448 250.912,272.900 251.181 C 264.806 251.661,253.465 251.844,252.810 251.505 C 251.220 250.683,247.166 250.114,246.640 250.640 M261.581 267.466 C 259.296 268.675,259.676 272.373,262.239 273.875 C 266.867 276.587,271.183 274.055,269.090 269.856 C 267.867 267.400,264.020 266.176,261.581 267.466 M298.000 274.332 C 296.513 274.951,295.136 277.632,293.910 282.300 C 293.881 282.410,293.746 281.960,293.610 281.300 C 292.901 277.867,291.214 276.198,288.458 276.202 C 285.343 276.206,284.146 277.407,282.276 282.400 L 281.415 284.700 281.408 282.681 C 281.399 280.425,281.329 280.286,279.893 279.682 C 277.693 278.756,274.059 278.132,273.418 278.570 C 273.186 278.729,273.128 280.073,273.090 286.245 L 273.043 293.727 272.427 294.946 C 271.292 297.195,268.899 299.579,268.339 299.019 C 268.062 298.742,267.803 289.903,267.936 285.258 C 268.041 281.597,268.013 280.757,267.781 280.476 C 266.827 279.320,260.696 277.861,260.052 278.637 C 259.322 279.517,259.596 296.424,260.365 297.931 C 261.420 300.000,263.567 300.994,267.310 301.147 C 270.712 301.286,272.570 300.353,273.729 297.925 L 274.053 297.245 275.076 297.696 C 277.016 298.549,280.468 299.192,281.149 298.827 C 281.508 298.635,281.527 298.419,281.449 295.461 L 281.366 292.300 283.096 287.200 C 285.639 279.703,285.870 279.560,285.670 285.609 C 285.459 291.997,286.448 293.507,291.100 293.900 C 292.820 294.045,292.952 293.960,293.297 292.478 C 293.450 291.825,293.887 290.348,294.270 289.196 C 294.653 288.043,295.332 285.930,295.778 284.500 C 296.775 281.310,297.462 280.092,297.883 280.772 C 298.350 281.529,299.028 292.455,298.843 296.266 L 298.758 298.033 299.753 298.992 C 301.344 300.526,303.554 301.200,306.988 301.200 C 310.107 301.200,311.620 300.177,313.128 297.050 L 313.828 295.601 314.951 296.516 C 319.916 300.560,328.366 300.414,332.252 296.217 C 333.804 294.541,334.326 293.313,334.915 289.956 C 335.188 288.399,335.464 286.916,335.528 286.661 C 335.651 286.171,334.727 285.600,333.810 285.600 C 333.340 285.600,333.352 285.560,332.702 289.289 C 331.741 294.809,329.754 297.133,325.812 297.348 C 321.429 297.587,319.232 294.965,319.382 289.676 C 319.400 289.061,319.418 289.050,320.650 288.913 C 328.582 288.034,330.980 282.618,325.674 277.562 C 323.695 275.676,318.576 274.698,316.342 275.780 C 312.517 277.631,309.980 286.561,311.715 292.066 C 312.081 293.226,312.081 293.228,311.605 294.627 C 309.791 299.954,307.455 299.916,307.158 294.554 C 306.499 282.661,305.695 278.878,303.256 276.177 C 301.997 274.784,299.240 273.816,298.000 274.332 M324.983 279.352 C 328.015 282.384,325.799 286.229,320.625 286.916 L 319.616 287.049 320.117 285.177 C 321.385 280.436,323.516 277.886,324.983 279.352 " stroke="none" fill="#c2400c22" fill-rule="evenodd">
</path>
<path id="path1" d="M288.443 84.679 C 278.589 88.675,276.471 97.240,283.375 105.175 C 288.309 110.846,289.356 115.064,287.316 121.054 C 286.537 123.344,286.592 123.429,288.335 122.613 C 297.819 118.175,299.383 109.095,292.065 100.952 C 287.570 95.951,286.975 91.823,289.902 85.968 C 291.045 83.682,291.000 83.642,288.443 84.679 M271.283 91.208 C 262.247 95.957,261.830 105.008,270.331 111.907 C 277.207 117.486,279.539 122.047,278.646 128.168 C 278.410 129.788,278.632 129.901,280.116 128.916 C 287.873 123.765,287.605 114.733,279.500 108.160 C 272.695 102.641,270.988 98.966,272.396 92.872 C 272.938 90.528,272.844 90.388,271.283 91.208 M263.600 119.332 C 252.183 120.443,245.417 122.760,243.793 126.115 C 242.880 128.000,244.035 137.733,245.902 143.893 C 251.505 162.374,263.630 171.941,282.200 172.534 C 296.375 172.987,306.138 167.729,311.643 156.676 C 313.138 153.674,313.076 153.357,311.400 155.434 C 295.385 175.271,263.278 169.275,256.614 145.204 C 254.970 139.264,258.058 136.793,265.800 137.852 C 277.447 139.446,293.718 139.037,304.396 136.881 C 326.573 132.403,326.106 122.328,303.600 119.714 C 298.625 119.136,298.459 119.276,302.900 120.301 C 313.880 122.834,319.687 126.265,317.402 128.867 C 310.119 137.162,254.105 137.190,246.829 128.903 C 244.402 126.138,250.283 122.815,262.418 120.096 C 266.156 119.258,266.475 119.052,263.600 119.332 M326.902 129.414 C 324.235 129.859,321.818 131.058,321.264 132.209 C 320.167 134.489,319.894 138.460,320.800 138.965 C 321.965 139.615,324.000 138.435,324.000 137.110 C 324.000 136.574,324.180 136.202,324.736 135.586 C 326.852 133.244,329.957 133.259,332.080 135.621 C 335.225 139.118,332.222 143.068,323.000 147.561 C 316.230 150.860,313.691 153.303,314.112 156.113 C 314.493 158.651,315.936 158.719,318.307 156.310 C 320.792 153.786,322.714 152.474,327.414 150.093 C 333.542 146.989,336.170 144.836,337.763 141.612 C 340.956 135.151,334.690 128.112,326.902 129.414 M314.700 165.152 C 314.810 165.252,315.661 165.537,316.591 165.786 C 321.240 167.026,325.531 169.495,324.879 170.555 C 320.932 176.977,247.126 177.304,242.095 170.922 C 241.655 170.364,241.604 170.344,241.602 170.727 C 241.594 172.295,246.217 174.298,253.000 175.666 C 275.445 180.191,315.071 178.671,324.907 172.907 C 329.196 170.393,325.824 166.931,317.700 165.507 C 314.718 164.984,314.487 164.957,314.700 165.152 M311.000 177.927 C 301.015 179.250,288.983 179.467,268.200 178.698 C 255.782 178.239,255.454 178.269,260.400 179.409 C 277.542 183.361,299.657 183.002,311.224 178.585 C 313.692 177.643,313.668 177.574,311.000 177.927 M147.800 252.487 C 147.800 260.035,150.044 266.370,154.536 271.509 C 156.216 273.431,155.902 273.459,153.569 271.596 C 148.827 267.807,146.116 260.176,146.946 252.950 C 147.143 251.234,147.005 251.056,145.995 251.729 C 137.096 257.655,141.808 277.700,152.100 277.700 C 164.182 277.700,161.588 251.547,149.455 251.029 L 147.800 250.959 147.800 252.487 M112.183 254.892 C 95.109 259.226,95.000 292.161,112.004 308.971 C 119.282 316.167,128.804 318.074,134.674 313.511 C 135.315 313.014,134.661 311.709,124.901 294.000 C 114.781 275.637,110.904 268.103,107.477 260.139 L 106.806 258.578 107.653 259.272 C 113.728 264.250,124.225 279.869,129.313 291.500 C 132.525 298.842,135.400 308.632,135.400 312.226 C 135.400 313.049,135.615 312.953,136.915 311.550 C 150.304 297.092,140.105 261.976,120.600 255.380 C 118.320 254.609,114.232 254.372,112.183 254.892 M165.400 279.837 C 159.637 280.551,154.754 284.289,153.170 289.200 C 152.760 290.470,152.379 295.000,152.681 295.000 C 152.754 295.000,153.238 294.785,153.757 294.523 C 164.129 289.274,177.047 292.447,185.739 302.379 C 187.546 304.444,187.493 304.562,185.451 303.026 C 176.647 296.406,167.927 293.917,158.426 295.312 C 156.584 295.583,153.019 296.342,152.839 296.501 C 152.675 296.647,153.517 299.282,154.185 300.710 C 162.722 318.988,191.330 318.749,191.276 300.400 C 191.241 288.607,178.209 278.251,165.400 279.837 " stroke="none" fill="#ea910d27" fill-rule="evenodd">
</path>
</g>
</svg>